:FULLY-SPECIFIED
:FORCE-ALL-JOINTS-BE-3DOF
:DEGREES
306
root 9.1513 15.3838 -23.8721 12.6186 57.9921 15.9218
lfemur -16.5043 19.0005 -18.1554
ltibia 51.9748 -0 0
lfoot -18.4493 -24.9419 -0.0492368
ltoes 57.6441 -0 0
rfemur -55.1849 -20.1921 36.1184
rtibia 58.0615 -0 0
rfoot 12.348 15.5566 0.355403
rtoes -5.06167 0 0
lowerback 9.52787 -3.16975 -8.26981
upperback 4.97338 -4.74205 -4.04734
thorax 0.209759 -2.39572 0.822823
lowerneck -5.36052 -10.4565 -2.53283
upperneck -2.57396 -13.8244 10.6486
head 1.11988 -6.80889 3.39938
lclavicle 0 0 0
lhumerus -42.8436 -43.1962 100.077
lradius 59.0333 -0 0
lwrist 20.3273 0 0
lhand 14.9139 11.7908 0.0204721
lfingers 0 0 0
lthumb 39.7683 37.067 0.0125675
rclavicle 0 0 0
rhumerus -31.0712 65.8062 -66.9632
rradius 79.3801 -0 0
rwrist 2.40627 0 0
rhand 6.3378 -4.5678 0.229741
rfingers 0 0 0
rthumb 31.6009 -31.3346 0.355212
307
root 9.12073 15.3981 -23.8731 12.1527 56.5997 15.0957
lfemur -16.6421 19.479 -18.0344
ltibia 51.6499 -0 0
lfoot -18.8497 -24.2231 -0.0255665
ltoes 57.6293 -0 0
rfemur -56.6289 -21.2979 37.0866
rtibia 58.6788 -0 0
rfoot 13.1577 18.0886 0.184261
rtoes -9.88033 0 0
lowerback 9.72823 -3.05335 -8.26397
upperback 5.01203 -4.60696 -4.05937
thorax 0.128435 -2.32631 0.812315
lowerneck -5.5208 -10.3293 -2.23741
upperneck -3.01636 -13.6325 10.7687
head 0.974061 -6.71991 3.40421
lclavicle 0 0 0
lhumerus -43.083 -43.6317 100.16
lradius 58.8618 -0 0
lwrist 20.2375 0 0
lhand 14.544 11.4671 0.0106314
lfingers 0 0 0
lthumb 39.421 36.8553 0.00652657
rclavicle 0 0 0
rhumerus -23.8836 66.707 -60.0104
rradius 79.5643 -0 0
rwrist 1.09926 0 0
rhand 9.02331 -4.07469 0.1191
rfingers 0 0 0
rthumb 34.1754 -30.5391 0.184153
308
root 9.10055 15.4076 -23.8743 11.8737 55.6781 14.5774
lfemur -16.7327 19.7953 -17.9549
ltibia 51.4353 -0 0
lfoot -19.1139 -23.7485 -0.00717814
ltoes 57.6195 -0 0
rfemur -57.5998 -22.0156 37.7465
rtibia 59.0865 -0 0
rfoot 13.6881 19.7597 0.0516719
rtoes -13.0633 0 0
lowerback 9.86057 -2.97647 -8.25989
upperback 5.03754 -4.51772 -4.06726
thorax 0.0747119 -2.28046 0.805321
lowerneck -5.62626 -10.2448 -2.04254
upperneck -3.30817 -13.5053 10.8471
head 0.877758 -6.66113 3.40728
lclavicle 0 0 0
lhumerus -43.2425 -43.9193 100.216
lradius 58.7486 -0 0
lwrist 20.1781 0 0
lhand 14.2996 11.2534 0.00298514
lfingers 0 0 0
lthumb 39.1916 36.7155 0.00183259
rclavicle 0 0 0
rhumerus -18.8816 67.1017 -55.1633
rradius 79.686 -0 0
rwrist 0.235907 0 0
rhand 10.7966 -3.75205 0.0333966
rfingers 0 0 0
rthumb 35.8746 -30.0181 0.0516398
309
root 8.95906 15.4833 -23.7423 11.7781 55.3449 14.3951
lfemur -16.7654 19.9095 -17.9263
ltibia 51.3578 0 0
lfoot -19.2093 -23.5771 0
ltoes 57.616 0 0
rfemur -57.9538 -22.2722 37.9888
rtibia 59.2337 0 0
rfoot 13.8786 20.3628 0
rtoes -14.2127 0 0
lowerback 9.90836 -2.94871 -8.25837
upperback 5.04675 -4.48549 -4.0701
thorax 0.0553108 -2.26391 0.802785
lowerneck -5.66427 -10.2142 -1.97222
upperneck -3.41346 -13.4593 10.8753
head 0.842986 -6.6399 3.40836
lclavicle 5.08889e-14 0 0
lhumerus -43.3004 -44.0231 100.237
lradius 58.7077 0 0
lwrist 20.1567 0 0
lhand 14.2114 11.1762 0
lfingers 7.12502 0 0
lthumb 39.1088 36.665 0
rclavicle 5.08889e-14 0 0
rhumerus -17.0391 67.2029 -53.3766
rradius 79.73 0 0
rwrist -0.0758576 0 0
rhand 11.4369 -3.63621 0
rfingers 7.12502 0 0
rthumb 36.4879 -29.831 0
